<svg width="299" height="60" viewBox="0 0 299 60" fill="none" xmlns="http://www.w3.org/2000/svg">
<rect width="299" height="60" rx="10" fill="white"/>
<path d="M50.4023 19.4453V29.9922L59.3672 19.4453H65.5547L56.3086 29.7461L66.6094 43H60.2109L52.9688 33.4727L50.4023 36.3555V43H45.5156V19.4453H50.4023ZM76.9102 24.7891C77.8711 24.7891 78.8438 25.0117 79.8281 25.457C80.8125 25.9023 81.6328 26.5 82.2891 27.25V25.2461H86.7539V43H82.2891V40.0117C81.7734 40.9727 81.0234 41.8047 80.0391 42.5078C79.0547 43.1875 77.9062 43.5273 76.5938 43.5273C75.1641 43.5273 73.8398 43.1641 72.6211 42.4375C71.4258 41.7109 70.4648 40.6562 69.7383 39.2734C69.0117 37.8906 68.6484 36.2148 68.6484 34.2461C68.6484 32.2773 69.0117 30.5898 69.7383 29.1836C70.4883 27.7773 71.4844 26.6992 72.7266 25.9492C73.9922 25.1758 75.3867 24.7891 76.9102 24.7891ZM77.8242 29.1484C76.8867 29.1484 76.0781 29.3945 75.3984 29.8867C74.7422 30.3555 74.2266 30.9766 73.8516 31.75C73.4766 32.5234 73.2891 33.3555 73.2891 34.2461C73.2891 35.582 73.6875 36.7188 74.4844 37.6562C75.3047 38.5938 76.3828 39.0625 77.7188 39.0625C78.5156 39.0625 79.2539 38.8516 79.9336 38.4297C80.6367 38.0078 81.1992 37.4219 81.6211 36.6719C82.0664 35.8984 82.2891 34.9727 82.2891 33.8945V31.3633C81.6562 30.6836 80.9648 30.1445 80.2148 29.7461C79.4883 29.3477 78.6914 29.1484 77.8242 29.1484ZM102.645 25.2461V28.9727H98.0391V43H93.5742V28.9727H90.8672V25.2461H93.5742V23.6641C93.5742 22.3047 93.8555 21.1445 94.418 20.1836C95.0039 19.1992 95.7656 18.4492 96.7031 17.9336C97.6406 17.418 98.6719 17.1602 99.7969 17.1602C100.547 17.1602 101.203 17.2422 101.766 17.4062C102.328 17.5703 102.82 17.793 103.242 18.0742V21.8008C102.469 21.332 101.578 21.1094 100.57 21.1328C99.8672 21.1562 99.2695 21.3906 98.7773 21.8359C98.2852 22.2578 98.0391 22.9609 98.0391 23.9453V25.2461H102.645ZM110.801 17.6875V33.1562L118.043 25.2461H123.633L115.969 32.9453L124.02 43H118.395L113.016 35.9336L110.801 38.1484V43H106.336V17.6875H110.801ZM133.09 24.7891C134.051 24.7891 135.023 25.0117 136.008 25.457C136.992 25.9023 137.812 26.5 138.469 27.25V25.2461H142.934V43H138.469V40.0117C137.953 40.9727 137.203 41.8047 136.219 42.5078C135.234 43.1875 134.086 43.5273 132.773 43.5273C131.344 43.5273 130.02 43.1641 128.801 42.4375C127.605 41.7109 126.645 40.6562 125.918 39.2734C125.191 37.8906 124.828 36.2148 124.828 34.2461C124.828 32.2773 125.191 30.5898 125.918 29.1836C126.668 27.7773 127.664 26.6992 128.906 25.9492C130.172 25.1758 131.566 24.7891 133.09 24.7891ZM134.004 29.1484C133.066 29.1484 132.258 29.3945 131.578 29.8867C130.922 30.3555 130.406 30.9766 130.031 31.75C129.656 32.5234 129.469 33.3555 129.469 34.2461C129.469 35.582 129.867 36.7188 130.664 37.6562C131.484 38.5938 132.562 39.0625 133.898 39.0625C134.695 39.0625 135.434 38.8516 136.113 38.4297C136.816 38.0078 137.379 37.4219 137.801 36.6719C138.246 35.8984 138.469 34.9727 138.469 33.8945V31.3633C137.836 30.6836 137.145 30.1445 136.395 29.7461C135.668 29.3477 134.871 29.1484 134.004 29.1484ZM173.871 29.7812V34.1758H164.625V43H159.738V19.4453H175.805V23.8398H164.625V29.7812H173.871ZM188.32 24.7891C189.281 24.7891 190.254 25.0117 191.238 25.457C192.223 25.9023 193.043 26.5 193.699 27.25V25.2461H198.164V43H193.699V40.0117C193.184 40.9727 192.434 41.8047 191.449 42.5078C190.465 43.1875 189.316 43.5273 188.004 43.5273C186.574 43.5273 185.25 43.1641 184.031 42.4375C182.836 41.7109 181.875 40.6562 181.148 39.2734C180.422 37.8906 180.059 36.2148 180.059 34.2461C180.059 32.2773 180.422 30.5898 181.148 29.1836C181.898 27.7773 182.895 26.6992 184.137 25.9492C185.402 25.1758 186.797 24.7891 188.32 24.7891ZM189.234 29.1484C188.297 29.1484 187.488 29.3945 186.809 29.8867C186.152 30.3555 185.637 30.9766 185.262 31.75C184.887 32.5234 184.699 33.3555 184.699 34.2461C184.699 35.582 185.098 36.7188 185.895 37.6562C186.715 38.5938 187.793 39.0625 189.129 39.0625C189.926 39.0625 190.664 38.8516 191.344 38.4297C192.047 38.0078 192.609 37.4219 193.031 36.6719C193.477 35.8984 193.699 34.9727 193.699 33.8945V31.3633C193.066 30.6836 192.375 30.1445 191.625 29.7461C190.898 29.3477 190.102 29.1484 189.234 29.1484ZM208.113 17.6875V33.1562L215.355 25.2461H220.945L213.281 32.9453L221.332 43H215.707L210.328 35.9336L208.113 38.1484V43H203.648V17.6875H208.113ZM230.789 24.7891C232.523 24.7891 234.012 25.1641 235.254 25.9141C236.52 26.6641 237.48 27.707 238.137 29.043C238.816 30.3555 239.156 31.8789 239.156 33.6133V35.5117H226.289C226.523 36.707 227.109 37.668 228.047 38.3945C228.984 39.1211 230.133 39.4844 231.492 39.4844C232.781 39.4844 233.953 39.2266 235.008 38.7109C236.062 38.1953 236.906 37.668 237.539 37.1289L237.504 41.2773C236.941 41.7695 236.098 42.2734 234.973 42.7891C233.871 43.2812 232.652 43.5273 231.316 43.5273C229.559 43.5273 227.953 43.1289 226.5 42.332C225.07 41.5352 223.922 40.4453 223.055 39.0625C222.211 37.6797 221.789 36.0977 221.789 34.3164C221.789 32.582 222.176 31 222.949 29.5703C223.723 28.1406 224.789 26.9922 226.148 26.125C227.508 25.2344 229.055 24.7891 230.789 24.7891ZM230.684 28.6914C229.582 28.6914 228.656 29.0312 227.906 29.7109C227.156 30.3906 226.641 31.3047 226.359 32.4531H234.867C234.773 31.1875 234.305 30.25 233.461 29.6406C232.617 29.0078 231.691 28.6914 230.684 28.6914ZM254.414 30.2383C253.664 29.8164 252.879 29.6055 252.059 29.6055C251.027 29.6055 250.172 29.9453 249.492 30.625C248.812 31.2812 248.215 32.1016 247.699 33.0859V43H243.234V25.2461H247.699V28.5859C248.309 27.5312 249.023 26.6523 249.844 25.9492C250.688 25.2461 251.637 24.8945 252.691 24.8945C253.324 24.8945 253.898 25 254.414 25.2109V30.2383Z" fill="black"/>
</svg>
