<?xml version="1.0" standalone="no"?>
<!DOCTYPE svg PUBLIC "-//W3C//DTD SVG 20010904//EN"
 "http://www.w3.org/TR/2001/REC-SVG-20010904/DTD/svg10.dtd">
<svg version="1.0" xmlns="http://www.w3.org/2000/svg"
 width="700.000000pt" height="700.000000pt" viewBox="0 0 700.000000 700.000000"
 preserveAspectRatio="xMidYMid meet">
<metadata>
Created by potrace 1.14, written by Peter Selinger 2001-2017
</metadata>
<g transform="translate(0.000000,700.000000) scale(0.100000,-0.100000)"
fill="#000000" stroke="none">
<path d="M1110 3355 l0 -1375 285 0 285 0 0 389 0 390 146 163 c80 90 148 164
152 165 4 1 196 -247 427 -552 l420 -554 374 -1 c297 0 371 3 364 13 -6 6
-276 355 -602 774 l-592 763 523 583 c288 320 529 590 537 600 13 16 -7 17
-345 17 l-359 0 -520 -612 -520 -612 -3 612 -2 612 -285 0 -285 0 0 -1375z"/>
<path d="M4042 3358 l3 -1373 283 -3 282 -2 0 515 0 515 540 0 540 0 0 260 0
260 -540 0 -540 0 0 345 0 345 655 0 655 0 0 255 0 255 -940 0 -940 0 2 -1372z"/>
</g>
</svg>
