<svg width="210" height="27" viewBox="0 0 210 27" fill="none" xmlns="http://www.w3.org/2000/svg">
<path d="M5.40234 2.44531V12.9922L14.3672 2.44531H20.5547L11.3086 12.7461L21.6094 26H15.2109L7.96875 16.4727L5.40234 19.3555V26H0.515625V2.44531H5.40234ZM31.9102 7.78906C32.8711 7.78906 33.8438 8.01172 34.8281 8.45703C35.8125 8.90234 36.6328 9.5 37.2891 10.25V8.24609H41.7539V26H37.2891V23.0117C36.7734 23.9727 36.0234 24.8047 35.0391 25.5078C34.0547 26.1875 32.9062 26.5273 31.5938 26.5273C30.1641 26.5273 28.8398 26.1641 27.6211 25.4375C26.4258 24.7109 25.4648 23.6562 24.7383 22.2734C24.0117 20.8906 23.6484 19.2148 23.6484 17.2461C23.6484 15.2773 24.0117 13.5898 24.7383 12.1836C25.4883 10.7773 26.4844 9.69922 27.7266 8.94922C28.9922 8.17578 30.3867 7.78906 31.9102 7.78906ZM32.8242 12.1484C31.8867 12.1484 31.0781 12.3945 30.3984 12.8867C29.7422 13.3555 29.2266 13.9766 28.8516 14.75C28.4766 15.5234 28.2891 16.3555 28.2891 17.2461C28.2891 18.582 28.6875 19.7188 29.4844 20.6562C30.3047 21.5938 31.3828 22.0625 32.7188 22.0625C33.5156 22.0625 34.2539 21.8516 34.9336 21.4297C35.6367 21.0078 36.1992 20.4219 36.6211 19.6719C37.0664 18.8984 37.2891 17.9727 37.2891 16.8945V14.3633C36.6562 13.6836 35.9648 13.1445 35.2148 12.7461C34.4883 12.3477 33.6914 12.1484 32.8242 12.1484ZM57.6445 8.24609V11.9727H53.0391V26H48.5742V11.9727H45.8672V8.24609H48.5742V6.66406C48.5742 5.30469 48.8555 4.14453 49.418 3.18359C50.0039 2.19922 50.7656 1.44922 51.7031 0.933594C52.6406 0.417969 53.6719 0.160156 54.7969 0.160156C55.5469 0.160156 56.2031 0.242188 56.7656 0.40625C57.3281 0.570312 57.8203 0.792969 58.2422 1.07422V4.80078C57.4688 4.33203 56.5781 4.10938 55.5703 4.13281C54.8672 4.15625 54.2695 4.39063 53.7773 4.83594C53.2852 5.25781 53.0391 5.96094 53.0391 6.94531V8.24609H57.6445ZM65.8008 0.6875V16.1562L73.043 8.24609H78.6328L70.9688 15.9453L79.0195 26H73.3945L68.0156 18.9336L65.8008 21.1484V26H61.3359V0.6875H65.8008ZM88.0898 7.78906C89.0508 7.78906 90.0234 8.01172 91.0078 8.45703C91.9922 8.90234 92.8125 9.5 93.4688 10.25V8.24609H97.9336V26H93.4688V23.0117C92.9531 23.9727 92.2031 24.8047 91.2188 25.5078C90.2344 26.1875 89.0859 26.5273 87.7734 26.5273C86.3438 26.5273 85.0195 26.1641 83.8008 25.4375C82.6055 24.7109 81.6445 23.6562 80.918 22.2734C80.1914 20.8906 79.8281 19.2148 79.8281 17.2461C79.8281 15.2773 80.1914 13.5898 80.918 12.1836C81.668 10.7773 82.6641 9.69922 83.9062 8.94922C85.1719 8.17578 86.5664 7.78906 88.0898 7.78906ZM89.0039 12.1484C88.0664 12.1484 87.2578 12.3945 86.5781 12.8867C85.9219 13.3555 85.4062 13.9766 85.0312 14.75C84.6562 15.5234 84.4688 16.3555 84.4688 17.2461C84.4688 18.582 84.8672 19.7188 85.6641 20.6562C86.4844 21.5938 87.5625 22.0625 88.8984 22.0625C89.6953 22.0625 90.4336 21.8516 91.1133 21.4297C91.8164 21.0078 92.3789 20.4219 92.8008 19.6719C93.2461 18.8984 93.4688 17.9727 93.4688 16.8945V14.3633C92.8359 13.6836 92.1445 13.1445 91.3945 12.7461C90.668 12.3477 89.8711 12.1484 89.0039 12.1484ZM128.871 12.7812V17.1758H119.625V26H114.738V2.44531H130.805V6.83984H119.625V12.7812H128.871ZM143.32 7.78906C144.281 7.78906 145.254 8.01172 146.238 8.45703C147.223 8.90234 148.043 9.5 148.699 10.25V8.24609H153.164V26H148.699V23.0117C148.184 23.9727 147.434 24.8047 146.449 25.5078C145.465 26.1875 144.316 26.5273 143.004 26.5273C141.574 26.5273 140.25 26.1641 139.031 25.4375C137.836 24.7109 136.875 23.6562 136.148 22.2734C135.422 20.8906 135.059 19.2148 135.059 17.2461C135.059 15.2773 135.422 13.5898 136.148 12.1836C136.898 10.7773 137.895 9.69922 139.137 8.94922C140.402 8.17578 141.797 7.78906 143.32 7.78906ZM144.234 12.1484C143.297 12.1484 142.488 12.3945 141.809 12.8867C141.152 13.3555 140.637 13.9766 140.262 14.75C139.887 15.5234 139.699 16.3555 139.699 17.2461C139.699 18.582 140.098 19.7188 140.895 20.6562C141.715 21.5938 142.793 22.0625 144.129 22.0625C144.926 22.0625 145.664 21.8516 146.344 21.4297C147.047 21.0078 147.609 20.4219 148.031 19.6719C148.477 18.8984 148.699 17.9727 148.699 16.8945V14.3633C148.066 13.6836 147.375 13.1445 146.625 12.7461C145.898 12.3477 145.102 12.1484 144.234 12.1484ZM163.113 0.6875V16.1562L170.355 8.24609H175.945L168.281 15.9453L176.332 26H170.707L165.328 18.9336L163.113 21.1484V26H158.648V0.6875H163.113ZM185.789 7.78906C187.523 7.78906 189.012 8.16406 190.254 8.91406C191.52 9.66406 192.48 10.707 193.137 12.043C193.816 13.3555 194.156 14.8789 194.156 16.6133V18.5117H181.289C181.523 19.707 182.109 20.668 183.047 21.3945C183.984 22.1211 185.133 22.4844 186.492 22.4844C187.781 22.4844 188.953 22.2266 190.008 21.7109C191.062 21.1953 191.906 20.668 192.539 20.1289L192.504 24.2773C191.941 24.7695 191.098 25.2734 189.973 25.7891C188.871 26.2812 187.652 26.5273 186.316 26.5273C184.559 26.5273 182.953 26.1289 181.5 25.332C180.07 24.5352 178.922 23.4453 178.055 22.0625C177.211 20.6797 176.789 19.0977 176.789 17.3164C176.789 15.582 177.176 14 177.949 12.5703C178.723 11.1406 179.789 9.99219 181.148 9.125C182.508 8.23438 184.055 7.78906 185.789 7.78906ZM185.684 11.6914C184.582 11.6914 183.656 12.0312 182.906 12.7109C182.156 13.3906 181.641 14.3047 181.359 15.4531H189.867C189.773 14.1875 189.305 13.25 188.461 12.6406C187.617 12.0078 186.691 11.6914 185.684 11.6914ZM209.414 13.2383C208.664 12.8164 207.879 12.6055 207.059 12.6055C206.027 12.6055 205.172 12.9453 204.492 13.625C203.812 14.2812 203.215 15.1016 202.699 16.0859V26H198.234V8.24609H202.699V11.5859C203.309 10.5312 204.023 9.65234 204.844 8.94922C205.688 8.24609 206.637 7.89453 207.691 7.89453C208.324 7.89453 208.898 8 209.414 8.21094V13.2383Z" fill="black"/>
</svg>
